<svg width="16" height="16" viewBox="0 0 16 16" fill="none" xmlns="http://www.w3.org/2000/svg">
  <path fill-rule="evenodd" clip-rule="evenodd" d="M8 0C3.582 0 0 3.582 0 8c0 3.538 2.292 6.533 5.471 7.594.4.074.547-.174.547-.385 0-.19-.007-.693-.011-1.36-2.226.484-2.695-1.074-2.695-1.074-.364-.923-.889-1.168-.889-1.168-.727-.496.055-.486.055-.486.804.057 1.226.826 1.226.826.715 1.223 1.874.87 2.33.665.072-.517.28-.87.508-1.07-1.777-.202-3.644-.888-3.644-3.952 0-.872.312-1.585.824-2.144-.083-.202-.357-1.015.078-2.115 0 0 .67-.214 2.194.82a7.65 7.65 0 011.998-.268c.678.003 1.363.09 1.998.268 1.524-1.034 2.192-.82 2.192-.82.437 1.1.163 1.913.08 2.115.513.559.823 1.272.823 2.144 0 3.072-1.87 3.747-3.65 3.945.29.25.543.736.543 1.484 0 1.07-.01 1.93-.01 2.193 0 .213.145.463.55.384C13.709 14.53 16 11.538 16 8c0-4.418-3.582-8-8-8z" fill="white"/>
</svg>