<svg width="16" height="16" viewBox="0 0 16 16" fill="none" xmlns="http://www.w3.org/2000/svg">
  <path d="M8.00033 1C8.55261 1 9.00033 1.44772 9.00033 2V8.58579L10.7071 6.87891C11.0976 6.48843 11.7308 6.48843 12.1213 6.87891C12.5118 7.26938 12.5118 7.90254 12.1213 8.29302L8.70712 11.7071C8.31665 12.0976 7.68349 12.0976 7.29296 11.7071L3.87884 8.29302C3.48836 7.90254 3.48836 7.26938 3.87884 6.87891C4.26931 6.48843 4.90247 6.48843 5.29294 6.87891L7.00033 8.58579V2C7.00033 1.44772 7.44805 1 8.00033 1Z" fill="white"/>
  <path d="M2 14C2 13.4477 2.44772 13 3 13H13C13.5523 13 14 13.4477 14 14C14 14.5523 13.5523 15 13 15H3C2.44772 15 2 14.5523 2 14Z" fill="white"/>
</svg>
